# xmcd CD database file
#
# Track frame offsets:
#	150
#	19480
#	36468
#	52765
#	80929
#	101954
#	120295
#	137533
#	155227
#	170941
#	189772
#	212107
#	229414
#
# Disc length: 3336 seconds
#
# Revision: 22
# Processed by: cddbd v1.5.2PL0 Copyright (c) Steve Scherf et al.
# Submitted via: CDex 1.70beta2
#
DISCID=bd0d060d
DTITLE=Superfly - Box Emotions
DYEAR=2009
DGENRE=Rock
TTITLE0=Alright!!
TTITLE1=How Do I Survive?
TTITLE2=Searching
TTITLE3=My Best Of My Life
TTITLE4=恋する瞳は美しい
TTITLE5=やさしい気持ちで
TTITLE6=Bad Girl
TTITLE7=アイデンティティの行方
TTITLE8=誕生
TTITLE9=See You
TTITLE10=春のまぼろし
TTITLE11=Hanky Panky
TTITLE12=愛に抱かれて
EXTD=YEAR: 2009
EXTT0=
EXTT1=
EXTT2=
EXTT3=
EXTT4=
EXTT5=
EXTT6=
EXTT7=
EXTT8=
EXTT9=
EXTT10=
EXTT11=
EXTT12=
PLAYORDER=
